<svg width="2732" height="2732" viewBox="0 0 2732 2732" xmlns="http://www.w3.org/2000/svg">
  <rect width="2732" height="2732" fill="#0C3C3A"/>
  <!-- OW Monogram: scale=900/400=2.25, height=300*2.25=675, offset_x=(2732-900)/2=916, offset_y=(2732-675)/2=1028.5 -->
  <g transform="translate(916, 1029) scale(2.25)">
    <path d="M 15 150 A 115 115 0 0 1 245 150 L 200 150 A 70 70 0 0 1 60 150 Z" fill="#E7B260"/>
    <path d="M 195 28 L 242 194 L 282 50 L 338 194 L 383 28 L 371 28 L 328 208 L 294 62 L 254 208 L 207 28 Z" fill="#E7B260"/>
    <path d="M 245 150 A 115 115 0 0 0 15 150 L 60 150 A 70 70 0 0 0 200 150 L 245 150 Z" fill="#E7B260"/>
  </g>
  <text x="1366" y="1900" font-family="Arial, sans-serif" font-size="120" font-weight="700" fill="#E7B260" text-anchor="middle" letter-spacing="20">OMNIWORX</text>
  <text x="1366" y="2000" font-family="Arial, sans-serif" font-size="56" font-weight="400" fill="#E7B260" opacity="0.6" text-anchor="middle" letter-spacing="14">ONDERHOUD EN RENOVATIES</text>
</svg>
